<?xml version="1.0" encoding="UTF-8"?>
<svg xmlns="http://www.w3.org/2000/svg" xmlns:xlink="http://www.w3.org/1999/xlink" viewBox="0 0 150 150" width="150px" height="150px">
<g id="surface1085144">
<path style=" stroke:none;fill-rule:evenodd;fill:rgb(5.490196%,59.215689%,52.941179%);fill-opacity:1;" d="M 71.570312 10.269531 C 73.695312 9.078125 76.304688 9.078125 78.425781 10.269531 C 88.910156 16.152344 120.460938 33.867188 130.945312 39.75 C 133.070312 40.9375 134.375 43.136719 134.375 45.519531 C 134.375 57.289062 134.375 92.710938 134.375 104.476562 C 134.375 106.859375 133.070312 109.058594 130.945312 110.25 C 120.460938 116.132812 88.914062 133.847656 78.425781 139.730469 C 76.304688 140.921875 73.691406 140.921875 71.570312 139.730469 C 61.085938 133.847656 29.539062 116.132812 19.050781 110.25 C 16.929688 109.058594 15.625 106.863281 15.625 104.480469 C 15.625 92.710938 15.625 57.289062 15.625 45.523438 C 15.625 43.140625 16.929688 40.941406 19.054688 39.75 C 29.535156 33.867188 61.089844 16.152344 71.570312 10.269531 Z M 71.570312 10.269531 "/>
<path style=" stroke:none;fill-rule:evenodd;fill:rgb(5.490196%,59.215689%,52.941179%);fill-opacity:1;" d="M 16.574219 107.511719 C 15.742188 106.398438 15.625 105.34375 15.625 103.921875 C 15.625 92.222656 15.625 57.003906 15.625 45.300781 C 15.625 42.929688 16.929688 40.742188 19.042969 39.5625 C 29.492188 33.710938 60.933594 16.101562 71.382812 10.25 C 73.496094 9.066406 76.363281 9.089844 78.476562 10.273438 C 88.925781 16.125 120.261719 33.585938 130.710938 39.433594 C 131.554688 39.910156 132.195312 40.480469 132.773438 41.234375 Z M 16.574219 107.511719 "/>
<path style=" stroke:none;fill-rule:evenodd;fill:rgb(100%,100%,100%);fill-opacity:1;" d="M 75 31.25 C 99.148438 31.25 118.75 50.851562 118.75 75 C 118.75 99.148438 99.148438 118.75 75 118.75 C 50.851562 118.75 31.25 99.148438 31.25 75 C 31.25 50.851562 50.851562 31.25 75 31.25 Z M 75 53.125 C 87.070312 53.125 96.875 62.925781 96.875 75 C 96.875 87.070312 87.070312 96.875 75 96.875 C 62.929688 96.875 53.125 87.070312 53.125 75 C 53.125 62.925781 62.925781 53.125 75 53.125 Z M 75 53.125 "/>
<path style=" stroke:none;fill-rule:evenodd;fill:rgb(5.490196%,59.215689%,52.941179%);fill-opacity:1;" d="M 132.765625 41.265625 C 134.378906 42.773438 134.347656 45.050781 134.347656 46.839844 C 134.347656 58.699219 134.246094 92.429688 134.375 104.289062 C 134.386719 105.527344 133.976562 106.832031 133.367188 107.8125 L 73.726562 75 Z M 132.765625 41.265625 "/>
<path style=" stroke:none;fill-rule:evenodd;fill:rgb(100%,100%,100%);fill-opacity:1;" d="M 96.875 65.625 L 103.125 65.625 L 103.125 84.375 L 96.875 84.375 Z M 118.75 65.625 L 125 65.625 L 125 84.375 L 118.75 84.375 Z M 118.75 65.625 "/>
<path style=" stroke:none;fill-rule:evenodd;fill:rgb(100%,100%,100%);fill-opacity:1;" d="M 90.625 71.875 L 109.375 71.875 L 109.375 78.125 L 90.625 78.125 Z M 112.5 71.875 L 131.25 71.875 L 131.25 78.125 L 112.5 78.125 Z M 112.5 71.875 "/>
</g>
</svg>
